<svg width="32" height="32" viewBox="0 0 32 32" fill="none" xmlns="http://www.w3.org/2000/svg">
  <rect width="32" height="32" rx="8" fill="#1F2937"/>
  <path d="M16 4C9.373 4 4 9.373 4 16C4 22.627 9.373 28 16 28C22.627 28 28 22.627 28 16C28 9.373 22.627 4 16 4ZM16 6.5C21.247 6.5 25.5 10.753 25.5 16C25.5 21.247 21.247 25.5 16 25.5C10.753 25.5 6.5 21.247 6.5 16C6.5 10.753 10.753 6.5 16 6.5Z" fill="#2DD4BF"/>
  <path d="M16 8C11.582 8 8 11.582 8 16C8 20.418 11.582 24 16 24C20.418 24 24 20.418 24 16C24 11.582 20.418 8 16 8ZM15 11C15 10.448 15.448 10 16 10C16.552 10 17 10.448 17 11V16C17 16.552 16.552 17 16 17H13C12.448 17 12 16.552 12 16C12 15.448 12.448 15 13 15H15V11Z" fill="#2DD4BF"/>
  <path d="M19.707 19.707C19.316 20.098 18.684 20.098 18.293 19.707L15.793 17.207C15.402 16.816 15.402 16.184 15.793 15.793C16.184 15.402 16.816 15.402 17.207 15.793L19.707 18.293C20.098 18.684 20.098 19.316 19.707 19.707Z" fill="#2DD4BF"/>
</svg> 